<?xml version="1.0" encoding="utf-8"?>
<!-- Generator: Adobe Illustrator 19.2.0, SVG Export Plug-In . SVG Version: 6.00 Build 0)  -->
<svg version="1.1" id="Layer_1" xmlns="http://www.w3.org/2000/svg" xmlns:xlink="http://www.w3.org/1999/xlink" x="0px" y="0px"
	 viewBox="0 0 42.5 28.3" style="enable-background:new 0 0 42.5 28.3;" xml:space="preserve">
<style type="text/css">
	.st0{fill:#989898;}
</style>
<title>plane_out_icon</title>
<path class="st0" d="M38,11.8c-1.6,1.5-3.2,2.8-4.6,4l-8.4-3l7.1-2.8c0.3-0.1,0.4-0.4,0.4-0.7c0-0.2-0.2-0.4-0.4-0.4
	c-0.1,0-0.1,0-0.2,0l-15.3,1L7.9,6.8c-1.6-0.6-6-0.5-7.7,1.6c-0.6,1.6,0.8,1.8,2.4,2.3l2,0.7c-0.6,0.1-1.1,0.7-1,1.3
	c0.1,0.4,0.3,0.8,0.7,0.9c0.6,0.2,1.2-0.1,1.4-0.7c0,0,0,0,0,0c0.2-0.4,0.1-0.9-0.2-1.2L17.4,16c-0.1,0.4,0,0.8,0.3,1.1
	c0,0,0,0.1,0,0.1c-0.2,0.6,0.1,1.2,0.7,1.5c0.2,0.1,0.4,0.1,0.6,0c0.1,0.2,0.3,0.3,0.5,0.3c0.6,0.2,1.2-0.1,1.4-0.6l6.6,6.1
	c0.1,0,0.1,0.1,0.2,0.1c0.2,0.1,0.4,0,0.5-0.1c0.2-0.2,0.3-0.5,0.1-0.7l-2.8-4.8l10,1.9l1.5,0.5c0.7,0.3,1.3,0.6,1.6-0.2l3.8-9.2
	C42.7,11.1,42.7,7.7,38,11.8z M1.2,28.3H39v-1.5H1.2V28.3L1.2,28.3z"/>
</svg>
