<?xml version="1.0" encoding="utf-8"?>
<!-- Generator: Adobe Illustrator 19.2.0, SVG Export Plug-In . SVG Version: 6.00 Build 0)  -->
<svg version="1.1" id="Layer_1" xmlns="http://www.w3.org/2000/svg" xmlns:xlink="http://www.w3.org/1999/xlink" x="0px" y="0px"
	 viewBox="0 0 42.5 28.4" style="enable-background:new 0 0 42.5 28.4;" xml:space="preserve">
<style type="text/css">
	.st0{fill:#989898;}
</style>
<title>plane_in_icon</title>
<path class="st0" d="M41.4,11.2l-1.2-9.8c-0.1-0.8-1.8-3.8-3.9,2.2c-0.7,2.1-1.4,4-2,5.7L25.5,11l4.8-6c0.2-0.2,0.2-0.5,0-0.7
	c-0.1-0.1-0.3-0.2-0.5-0.2c-0.1,0-0.1,0-0.2,0.1l-12.8,8.5l-9.1,1.8C6,14.7,2.2,17,1.7,19.7c0.3,1.7,1.6,1.1,3.2,0.8l2.1-0.4
	c-0.3,0.3-0.5,0.7-0.4,1.1c0.1,0.6,0.7,1,1.3,0.9c0,0,0,0,0,0c0.6-0.1,1-0.7,0.9-1.3c-0.1-0.4-0.4-0.8-0.8-0.9l12.4-2.4
	c0.1,0.4,0.4,0.7,0.8,0.8c0,0,0,0.1,0,0.1c0.1,0.6,0.7,1,1.3,0.9c0,0,0,0,0,0c0.2,0,0.4-0.1,0.5-0.3c0.2,0.1,0.4,0.1,0.6,0
	c0.6-0.1,1-0.7,0.9-1.2l8.8,1.9c0.1,0,0.1,0,0.2,0c0.2,0,0.4-0.2,0.4-0.4c0.1-0.3,0-0.6-0.3-0.7l-4.8-2.7l9.6-3.4l1.6-0.3
	C40.9,12,41.6,12,41.4,11.2z M1.1,28.3H39v-1.5H1.1L1.1,28.3L1.1,28.3z"/>
</svg>
